G04 EAGLE Gerber RS-274X export*
G75*
%MOMM*%
%FSLAX34Y34*%
%LPD*%
%INTop Copper*%
%IPPOS*%
%AMOC8*
5,1,8,0,0,1.08239X$1,22.5*%
G01*
%ADD10P,1.429621X8X112.500000*%
%ADD11P,1.429621X8X22.500000*%
%ADD12C,1.700000*%
%ADD13P,1.429621X8X292.500000*%
%ADD14P,1.429621X8X202.500000*%
%ADD15P,2.763017X8X22.500000*%
%ADD16C,1.905000*%
%ADD17R,1.524000X1.524000*%
%ADD18C,1.524000*%
%ADD19R,1.860000X1.860000*%
%ADD20C,1.860000*%
%ADD21C,1.790700*%
%ADD22C,1.524000*%
%ADD23C,1.725000*%
%ADD24P,1.649562X8X22.500000*%
%ADD25C,0.609600*%
%ADD26C,1.206400*%


D10*
X885190Y548640D03*
X885190Y574040D03*
D11*
X709930Y571500D03*
X735330Y571500D03*
X458470Y388874D03*
X483870Y388874D03*
X520700Y388620D03*
X546100Y388620D03*
X683260Y654050D03*
X708660Y654050D03*
X683260Y605790D03*
X708660Y605790D03*
X797560Y654050D03*
X822960Y654050D03*
X942340Y632460D03*
X967740Y632460D03*
D12*
X635254Y537210D03*
X559054Y537210D03*
X495300Y495300D03*
X571500Y495300D03*
X584200Y444500D03*
X660400Y444500D03*
X622300Y393700D03*
X698500Y393700D03*
D13*
X726694Y497586D03*
X726694Y472186D03*
D10*
X120650Y472440D03*
X120650Y497840D03*
D14*
X519430Y434340D03*
X494030Y434340D03*
D11*
X397510Y520700D03*
X422910Y520700D03*
D14*
X203200Y546100D03*
X177800Y546100D03*
D10*
X309880Y518160D03*
X309880Y543560D03*
D13*
X177800Y495300D03*
X177800Y469900D03*
D11*
X254000Y457200D03*
X279400Y457200D03*
D10*
X703580Y699770D03*
X703580Y725170D03*
D11*
X772160Y699770D03*
X797560Y699770D03*
X419100Y457200D03*
X444500Y457200D03*
X369570Y494030D03*
X394970Y494030D03*
D15*
X50800Y447040D03*
X62230Y676910D03*
X50800Y491490D03*
X62230Y633730D03*
X487680Y725170D03*
D16*
X378460Y784860D03*
X404876Y784860D03*
X431292Y784860D03*
D17*
X177800Y330200D03*
D18*
X203200Y330200D03*
X228600Y330200D03*
X254000Y330200D03*
X279400Y330200D03*
X304800Y330200D03*
X330200Y330200D03*
X330200Y406400D03*
X304800Y406400D03*
X279400Y406400D03*
X254000Y406400D03*
X228600Y406400D03*
X203200Y406400D03*
X177800Y406400D03*
D19*
X101600Y749300D03*
D20*
X127000Y749300D03*
X152400Y749300D03*
D19*
X247650Y728980D03*
D20*
X273050Y728980D03*
X298450Y728980D03*
D21*
X811975Y446170D02*
X829882Y446170D01*
X829882Y496170D02*
X811975Y496170D01*
X803847Y599040D02*
X821754Y599040D01*
X821754Y549040D02*
X803847Y549040D01*
D22*
X944880Y492760D02*
X944880Y477520D01*
X919480Y477520D02*
X919480Y492760D01*
X894080Y492760D02*
X894080Y477520D01*
X967740Y584200D02*
X967740Y599440D01*
X942340Y599440D02*
X942340Y584200D01*
X525780Y193040D02*
X525780Y177800D01*
X551180Y177800D02*
X551180Y193040D01*
X576580Y193040D02*
X576580Y177800D01*
X601980Y177800D02*
X601980Y193040D01*
X627380Y193040D02*
X627380Y177800D01*
X652780Y177800D02*
X652780Y193040D01*
X678180Y193040D02*
X678180Y177800D01*
X703580Y177800D02*
X703580Y193040D01*
X525780Y254000D02*
X525780Y269240D01*
X551180Y269240D02*
X551180Y254000D01*
X576580Y254000D02*
X576580Y269240D01*
X601980Y269240D02*
X601980Y254000D01*
X627380Y254000D02*
X627380Y269240D01*
X652780Y269240D02*
X652780Y254000D01*
X678180Y254000D02*
X678180Y269240D01*
X703580Y269240D02*
X703580Y254000D01*
X535940Y584200D02*
X535940Y599440D01*
X510540Y599440D02*
X510540Y584200D01*
X485140Y584200D02*
X485140Y599440D01*
X459740Y599440D02*
X459740Y584200D01*
X434340Y584200D02*
X434340Y599440D01*
X408940Y599440D02*
X408940Y584200D01*
X383540Y584200D02*
X383540Y599440D01*
X358140Y599440D02*
X358140Y584200D01*
X320040Y193040D02*
X320040Y177800D01*
X345440Y177800D02*
X345440Y193040D01*
X370840Y193040D02*
X370840Y177800D01*
X396240Y177800D02*
X396240Y193040D01*
X421640Y193040D02*
X421640Y177800D01*
X447040Y177800D02*
X447040Y193040D01*
X472440Y193040D02*
X472440Y177800D01*
X497840Y177800D02*
X497840Y193040D01*
X99060Y256540D02*
X83820Y256540D01*
X83820Y281940D02*
X99060Y281940D01*
X99060Y307340D02*
X83820Y307340D01*
X83820Y332740D02*
X99060Y332740D01*
X99060Y358140D02*
X83820Y358140D01*
X83820Y383540D02*
X99060Y383540D01*
X99060Y408940D02*
X83820Y408940D01*
X83820Y434340D02*
X99060Y434340D01*
X88900Y584200D02*
X88900Y599440D01*
X114300Y599440D02*
X114300Y584200D01*
X139700Y584200D02*
X139700Y599440D01*
X165100Y599440D02*
X165100Y584200D01*
X190500Y584200D02*
X190500Y599440D01*
X215900Y599440D02*
X215900Y584200D01*
X241300Y584200D02*
X241300Y599440D01*
X266700Y599440D02*
X266700Y584200D01*
X266700Y116840D02*
X266700Y101600D01*
X241300Y101600D02*
X241300Y116840D01*
X215900Y116840D02*
X215900Y101600D01*
X190500Y101600D02*
X190500Y116840D01*
X165100Y116840D02*
X165100Y101600D01*
X139700Y101600D02*
X139700Y116840D01*
X114300Y116840D02*
X114300Y101600D01*
X88900Y101600D02*
X88900Y116840D01*
X469900Y116840D02*
X469900Y101600D01*
X444500Y101600D02*
X444500Y116840D01*
X419100Y116840D02*
X419100Y101600D01*
X393700Y101600D02*
X393700Y116840D01*
X368300Y116840D02*
X368300Y101600D01*
X342900Y101600D02*
X342900Y116840D01*
X317500Y116840D02*
X317500Y101600D01*
X292100Y101600D02*
X292100Y116840D01*
X325120Y584200D02*
X325120Y599440D01*
X299720Y599440D02*
X299720Y584200D01*
X815340Y55880D02*
X815340Y40640D01*
X840740Y40640D02*
X840740Y55880D01*
X866140Y55880D02*
X866140Y40640D01*
X891540Y40640D02*
X891540Y55880D01*
X916940Y55880D02*
X916940Y40640D01*
X942340Y40640D02*
X942340Y55880D01*
X396240Y304800D02*
X396240Y320040D01*
X421640Y320040D02*
X421640Y304800D01*
X447040Y304800D02*
X447040Y320040D01*
X472440Y320040D02*
X472440Y304800D01*
X497840Y304800D02*
X497840Y320040D01*
X523240Y320040D02*
X523240Y304800D01*
X548640Y304800D02*
X548640Y320040D01*
X574040Y320040D02*
X574040Y304800D01*
X599440Y304800D02*
X599440Y320040D01*
X624840Y320040D02*
X624840Y304800D01*
X650240Y304800D02*
X650240Y320040D01*
X675640Y320040D02*
X675640Y304800D01*
X701040Y304800D02*
X701040Y320040D01*
X726440Y320040D02*
X726440Y304800D01*
X751840Y304800D02*
X751840Y320040D01*
X777240Y320040D02*
X777240Y304800D01*
X895350Y396494D02*
X895350Y411734D01*
X920750Y411734D02*
X920750Y396494D01*
X946150Y396494D02*
X946150Y411734D01*
D11*
X321310Y474980D03*
X346710Y474980D03*
D14*
X570230Y725170D03*
X544830Y725170D03*
D11*
X203200Y457200D03*
X228600Y457200D03*
D10*
X227330Y509270D03*
X227330Y534670D03*
X139700Y427990D03*
X139700Y453390D03*
D14*
X560070Y457200D03*
X534670Y457200D03*
D11*
X622300Y647700D03*
X647700Y647700D03*
X342900Y520700D03*
X368300Y520700D03*
D23*
X507280Y350520D03*
X417280Y350520D03*
D22*
X871220Y350520D02*
X871220Y335280D01*
X896620Y335280D02*
X896620Y350520D01*
X922020Y350520D02*
X922020Y335280D01*
X947420Y335280D02*
X947420Y350520D01*
X972820Y350520D02*
X972820Y335280D01*
D24*
X519176Y801370D03*
X971296Y800100D03*
D25*
X797560Y699770D02*
X797560Y654050D01*
X708660Y654050D02*
X708660Y605790D01*
X203200Y485140D02*
X203200Y457200D01*
X203200Y485140D02*
X227330Y509270D01*
X483870Y400050D02*
X492760Y408940D01*
X483870Y400050D02*
X483870Y388874D01*
X536194Y408940D02*
X546100Y399034D01*
X546100Y388620D01*
X536194Y408940D02*
X492760Y408940D01*
X265430Y547370D02*
X227330Y509270D01*
D26*
X265430Y547370D03*
D25*
X560070Y457200D02*
X570230Y467360D01*
X635295Y467360D02*
X662706Y494772D01*
X662706Y510012D01*
D26*
X662706Y510012D03*
D25*
X635295Y467360D02*
X570230Y467360D01*
X404876Y751840D02*
X404876Y784860D01*
X404876Y751840D02*
X294386Y641350D01*
D26*
X294386Y641350D03*
D25*
X177800Y469900D02*
X172720Y469900D01*
X62230Y580390D01*
D26*
X197104Y651256D03*
D25*
X125984Y651256D01*
X108458Y633730D02*
X62230Y633730D01*
X108458Y633730D02*
X125984Y651256D01*
X447802Y801370D02*
X519176Y801370D01*
X447802Y801370D02*
X431292Y784860D01*
X62230Y633730D02*
X62230Y580390D01*
X812800Y599040D02*
X823576Y599040D01*
X971296Y746760D02*
X971296Y800100D01*
X971296Y746760D02*
X823576Y599040D01*
D26*
X500380Y535940D03*
D25*
X495300Y541020D01*
X312420Y541020D01*
X309880Y543560D01*
X322580Y424180D02*
X304800Y406400D01*
D26*
X393700Y444500D03*
D25*
X374650Y424180D02*
X322580Y424180D01*
X393700Y443230D02*
X393700Y444500D01*
X393700Y443230D02*
X374650Y424180D01*
X321310Y474980D02*
X287274Y440944D01*
X175514Y440944D01*
X163830Y429260D01*
D26*
X163830Y429260D03*
D25*
X139700Y427990D02*
X139700Y334010D01*
X165100Y308610D01*
X127000Y723900D02*
X127000Y749300D01*
X114300Y711200D02*
X45720Y711200D01*
X33020Y698500D01*
X33020Y557530D02*
X80010Y510540D01*
X135636Y427990D02*
X139700Y427990D01*
X135636Y427990D02*
X80010Y483616D01*
X114300Y711200D02*
X127000Y723900D01*
X33020Y698500D02*
X33020Y557530D01*
X80010Y510540D02*
X80010Y483616D01*
X709930Y571500D02*
X709930Y573532D01*
X760984Y624586D01*
X807466Y624586D01*
X822960Y640080D01*
X822960Y654050D01*
X495300Y495300D02*
X457200Y457200D01*
X444500Y457200D01*
X427990Y394970D02*
X341376Y308356D01*
X274574Y308356D01*
X254000Y328930D01*
X254000Y330200D01*
X254000Y328930D02*
X233680Y308610D01*
X165100Y308610D01*
D26*
X427990Y394970D03*
D25*
X650748Y609346D02*
X622300Y637794D01*
X622300Y647700D01*
D26*
X508000Y647700D03*
D25*
X622300Y647700D01*
X650748Y609346D02*
X650748Y554084D01*
X688340Y516492D02*
X688340Y467360D01*
X688340Y516492D02*
X650748Y554084D01*
X688340Y467360D02*
X665480Y444500D01*
X660400Y444500D01*
X177800Y495300D02*
X177800Y546100D01*
X190500Y571500D02*
X190500Y591820D01*
X190500Y571500D02*
X177800Y558800D01*
X177800Y546100D01*
D26*
X157480Y546100D03*
X279400Y482600D03*
D25*
X165100Y576580D02*
X165100Y591820D01*
X165100Y576580D02*
X157480Y568960D01*
X157480Y546100D01*
X309880Y518160D02*
X309880Y513080D01*
X279400Y482600D01*
X229870Y676910D02*
X62230Y676910D01*
X243840Y662940D02*
X243840Y632460D01*
X243840Y662940D02*
X229870Y676910D01*
X243840Y632460D02*
X228600Y617220D01*
X180340Y617220D01*
X165100Y601980D01*
X165100Y591820D01*
D26*
X74422Y543052D03*
X389890Y405130D03*
D25*
X433324Y414020D02*
X458470Y388874D01*
X433324Y414020D02*
X398780Y414020D01*
X389890Y405130D01*
X265430Y425450D02*
X191770Y425450D01*
X191516Y425196D01*
X482600Y434340D02*
X494030Y434340D01*
X482600Y434340D02*
X458470Y410210D01*
X458470Y388874D01*
X120650Y497840D02*
X119634Y497840D01*
X74422Y543052D01*
D26*
X191516Y425196D03*
X265430Y425450D03*
D25*
X152400Y749300D02*
X152400Y757936D01*
X166878Y772414D01*
X289052Y772414D01*
X298450Y763016D01*
X298450Y728980D01*
X683260Y654050D02*
X683260Y605790D01*
X712870Y541020D02*
X726078Y541020D01*
X820928Y446170D01*
D26*
X630174Y604774D03*
D25*
X630174Y542290D01*
X635254Y537210D01*
D26*
X561340Y624840D03*
D25*
X581406Y604774D02*
X630174Y604774D01*
X581406Y604774D02*
X561340Y624840D01*
D26*
X712870Y541020D03*
D25*
X726694Y472186D02*
X726694Y421894D01*
X698500Y393700D01*
X544322Y364998D02*
X520700Y388620D01*
X544322Y364998D02*
X669798Y364998D01*
X698500Y393700D01*
X469900Y495300D02*
X444500Y520700D01*
X422910Y520700D01*
D26*
X469900Y495300D03*
D25*
X279400Y408432D02*
X279400Y406400D01*
X279400Y408432D02*
X308610Y437642D01*
X358902Y437642D01*
X394970Y473710D01*
X394970Y494030D01*
X419100Y480568D02*
X419100Y457200D01*
X419100Y480568D02*
X405638Y494030D01*
X394970Y494030D01*
X472440Y312420D02*
X472440Y303022D01*
X440182Y270764D01*
X252222Y270764D01*
X165100Y183642D01*
X165100Y109220D01*
X548640Y306070D02*
X548640Y312420D01*
X548640Y306070D02*
X530352Y287782D01*
X504952Y287782D01*
X456692Y239522D01*
X276352Y239522D01*
X241300Y204470D01*
X241300Y109220D01*
X675640Y294640D02*
X675640Y312420D01*
X675640Y294640D02*
X684022Y286258D01*
X715010Y286258D01*
X727520Y273748D01*
X727520Y245872D01*
D26*
X727520Y245872D03*
D25*
X726694Y497586D02*
X726694Y501396D01*
X665226Y562864D01*
X665226Y630174D02*
X647700Y647700D01*
X665226Y630174D02*
X665226Y562864D01*
X290830Y560070D02*
X266700Y584200D01*
X266700Y591820D01*
X545084Y514604D02*
X613664Y514604D01*
X499618Y560070D02*
X290830Y560070D01*
X499618Y560070D02*
X545084Y514604D01*
X629920Y498348D02*
X629920Y485140D01*
X629920Y498348D02*
X613664Y514604D01*
D26*
X629920Y485140D03*
X742442Y405892D03*
D25*
X841248Y405892D01*
X871220Y375920D01*
X871220Y342900D01*
X886206Y214376D02*
X903986Y196596D01*
X886206Y214376D02*
X598424Y214376D01*
X576580Y236220D01*
X576580Y261620D01*
D26*
X903986Y196596D03*
D25*
X601980Y243840D02*
X601980Y261620D01*
X601980Y243840D02*
X618490Y227330D01*
X902970Y227330D01*
X947420Y271780D01*
X947420Y342900D01*
M02*
