G04 EAGLE Gerber RS-274X export*
G75*
%MOMM*%
%FSLAX34Y34*%
%LPD*%
%INBottom Copper*%
%IPPOS*%
%AMOC8*
5,1,8,0,0,1.08239X$1,22.5*%
G01*
%ADD10P,1.429621X8X112.500000*%
%ADD11P,1.429621X8X22.500000*%
%ADD12C,1.700000*%
%ADD13P,1.429621X8X292.500000*%
%ADD14P,1.429621X8X202.500000*%
%ADD15P,2.763017X8X22.500000*%
%ADD16C,1.905000*%
%ADD17R,1.524000X1.524000*%
%ADD18C,1.524000*%
%ADD19R,1.860000X1.860000*%
%ADD20C,1.860000*%
%ADD21C,1.790700*%
%ADD22C,1.524000*%
%ADD23C,1.725000*%
%ADD24P,1.649562X8X22.500000*%
%ADD25C,0.609600*%
%ADD26C,1.206400*%
%ADD27C,0.508000*%


D10*
X885190Y548640D03*
X885190Y574040D03*
D11*
X709930Y571500D03*
X735330Y571500D03*
X458470Y388874D03*
X483870Y388874D03*
X520700Y388620D03*
X546100Y388620D03*
X683260Y654050D03*
X708660Y654050D03*
X683260Y605790D03*
X708660Y605790D03*
X797560Y654050D03*
X822960Y654050D03*
X942340Y632460D03*
X967740Y632460D03*
D12*
X635254Y537210D03*
X559054Y537210D03*
X495300Y495300D03*
X571500Y495300D03*
X584200Y444500D03*
X660400Y444500D03*
X622300Y393700D03*
X698500Y393700D03*
D13*
X726694Y497586D03*
X726694Y472186D03*
D10*
X120650Y472440D03*
X120650Y497840D03*
D14*
X519430Y434340D03*
X494030Y434340D03*
D11*
X397510Y520700D03*
X422910Y520700D03*
D14*
X203200Y546100D03*
X177800Y546100D03*
D10*
X309880Y518160D03*
X309880Y543560D03*
D13*
X177800Y495300D03*
X177800Y469900D03*
D11*
X254000Y457200D03*
X279400Y457200D03*
D10*
X703580Y699770D03*
X703580Y725170D03*
D11*
X772160Y699770D03*
X797560Y699770D03*
X419100Y457200D03*
X444500Y457200D03*
X369570Y494030D03*
X394970Y494030D03*
D15*
X50800Y447040D03*
X62230Y676910D03*
X50800Y491490D03*
X62230Y633730D03*
X487680Y725170D03*
D16*
X378460Y784860D03*
X404876Y784860D03*
X431292Y784860D03*
D17*
X177800Y330200D03*
D18*
X203200Y330200D03*
X228600Y330200D03*
X254000Y330200D03*
X279400Y330200D03*
X304800Y330200D03*
X330200Y330200D03*
X330200Y406400D03*
X304800Y406400D03*
X279400Y406400D03*
X254000Y406400D03*
X228600Y406400D03*
X203200Y406400D03*
X177800Y406400D03*
D19*
X101600Y749300D03*
D20*
X127000Y749300D03*
X152400Y749300D03*
D19*
X247650Y728980D03*
D20*
X273050Y728980D03*
X298450Y728980D03*
D21*
X811975Y446170D02*
X829882Y446170D01*
X829882Y496170D02*
X811975Y496170D01*
X803847Y599040D02*
X821754Y599040D01*
X821754Y549040D02*
X803847Y549040D01*
D22*
X944880Y492760D02*
X944880Y477520D01*
X919480Y477520D02*
X919480Y492760D01*
X894080Y492760D02*
X894080Y477520D01*
X967740Y584200D02*
X967740Y599440D01*
X942340Y599440D02*
X942340Y584200D01*
X525780Y193040D02*
X525780Y177800D01*
X551180Y177800D02*
X551180Y193040D01*
X576580Y193040D02*
X576580Y177800D01*
X601980Y177800D02*
X601980Y193040D01*
X627380Y193040D02*
X627380Y177800D01*
X652780Y177800D02*
X652780Y193040D01*
X678180Y193040D02*
X678180Y177800D01*
X703580Y177800D02*
X703580Y193040D01*
X525780Y254000D02*
X525780Y269240D01*
X551180Y269240D02*
X551180Y254000D01*
X576580Y254000D02*
X576580Y269240D01*
X601980Y269240D02*
X601980Y254000D01*
X627380Y254000D02*
X627380Y269240D01*
X652780Y269240D02*
X652780Y254000D01*
X678180Y254000D02*
X678180Y269240D01*
X703580Y269240D02*
X703580Y254000D01*
X535940Y584200D02*
X535940Y599440D01*
X510540Y599440D02*
X510540Y584200D01*
X485140Y584200D02*
X485140Y599440D01*
X459740Y599440D02*
X459740Y584200D01*
X434340Y584200D02*
X434340Y599440D01*
X408940Y599440D02*
X408940Y584200D01*
X383540Y584200D02*
X383540Y599440D01*
X358140Y599440D02*
X358140Y584200D01*
X320040Y193040D02*
X320040Y177800D01*
X345440Y177800D02*
X345440Y193040D01*
X370840Y193040D02*
X370840Y177800D01*
X396240Y177800D02*
X396240Y193040D01*
X421640Y193040D02*
X421640Y177800D01*
X447040Y177800D02*
X447040Y193040D01*
X472440Y193040D02*
X472440Y177800D01*
X497840Y177800D02*
X497840Y193040D01*
X99060Y256540D02*
X83820Y256540D01*
X83820Y281940D02*
X99060Y281940D01*
X99060Y307340D02*
X83820Y307340D01*
X83820Y332740D02*
X99060Y332740D01*
X99060Y358140D02*
X83820Y358140D01*
X83820Y383540D02*
X99060Y383540D01*
X99060Y408940D02*
X83820Y408940D01*
X83820Y434340D02*
X99060Y434340D01*
X88900Y584200D02*
X88900Y599440D01*
X114300Y599440D02*
X114300Y584200D01*
X139700Y584200D02*
X139700Y599440D01*
X165100Y599440D02*
X165100Y584200D01*
X190500Y584200D02*
X190500Y599440D01*
X215900Y599440D02*
X215900Y584200D01*
X241300Y584200D02*
X241300Y599440D01*
X266700Y599440D02*
X266700Y584200D01*
X266700Y116840D02*
X266700Y101600D01*
X241300Y101600D02*
X241300Y116840D01*
X215900Y116840D02*
X215900Y101600D01*
X190500Y101600D02*
X190500Y116840D01*
X165100Y116840D02*
X165100Y101600D01*
X139700Y101600D02*
X139700Y116840D01*
X114300Y116840D02*
X114300Y101600D01*
X88900Y101600D02*
X88900Y116840D01*
X469900Y116840D02*
X469900Y101600D01*
X444500Y101600D02*
X444500Y116840D01*
X419100Y116840D02*
X419100Y101600D01*
X393700Y101600D02*
X393700Y116840D01*
X368300Y116840D02*
X368300Y101600D01*
X342900Y101600D02*
X342900Y116840D01*
X317500Y116840D02*
X317500Y101600D01*
X292100Y101600D02*
X292100Y116840D01*
X325120Y584200D02*
X325120Y599440D01*
X299720Y599440D02*
X299720Y584200D01*
X815340Y55880D02*
X815340Y40640D01*
X840740Y40640D02*
X840740Y55880D01*
X866140Y55880D02*
X866140Y40640D01*
X891540Y40640D02*
X891540Y55880D01*
X916940Y55880D02*
X916940Y40640D01*
X942340Y40640D02*
X942340Y55880D01*
X396240Y304800D02*
X396240Y320040D01*
X421640Y320040D02*
X421640Y304800D01*
X447040Y304800D02*
X447040Y320040D01*
X472440Y320040D02*
X472440Y304800D01*
X497840Y304800D02*
X497840Y320040D01*
X523240Y320040D02*
X523240Y304800D01*
X548640Y304800D02*
X548640Y320040D01*
X574040Y320040D02*
X574040Y304800D01*
X599440Y304800D02*
X599440Y320040D01*
X624840Y320040D02*
X624840Y304800D01*
X650240Y304800D02*
X650240Y320040D01*
X675640Y320040D02*
X675640Y304800D01*
X701040Y304800D02*
X701040Y320040D01*
X726440Y320040D02*
X726440Y304800D01*
X751840Y304800D02*
X751840Y320040D01*
X777240Y320040D02*
X777240Y304800D01*
X895350Y396494D02*
X895350Y411734D01*
X920750Y411734D02*
X920750Y396494D01*
X946150Y396494D02*
X946150Y411734D01*
D11*
X321310Y474980D03*
X346710Y474980D03*
D14*
X570230Y725170D03*
X544830Y725170D03*
D11*
X203200Y457200D03*
X228600Y457200D03*
D10*
X227330Y509270D03*
X227330Y534670D03*
X139700Y427990D03*
X139700Y453390D03*
D14*
X560070Y457200D03*
X534670Y457200D03*
D11*
X622300Y647700D03*
X647700Y647700D03*
X342900Y520700D03*
X368300Y520700D03*
D23*
X507280Y350520D03*
X417280Y350520D03*
D22*
X871220Y350520D02*
X871220Y335280D01*
X896620Y335280D02*
X896620Y350520D01*
X922020Y350520D02*
X922020Y335280D01*
X947420Y335280D02*
X947420Y350520D01*
X972820Y350520D02*
X972820Y335280D01*
D24*
X519176Y801370D03*
X971296Y800100D03*
D25*
X972820Y342900D02*
X972820Y274320D01*
X942340Y243840D01*
X942340Y48260D01*
X909320Y548640D02*
X885190Y548640D01*
X942340Y581660D02*
X942340Y591820D01*
X942340Y581660D02*
X909320Y548640D01*
X942340Y591820D02*
X942340Y632460D01*
X820928Y540912D02*
X812800Y549040D01*
X820928Y540912D02*
X820928Y496170D01*
X884790Y549040D02*
X885190Y548640D01*
X884790Y549040D02*
X812800Y549040D01*
X749300Y571500D02*
X735330Y571500D01*
X749300Y571500D02*
X772160Y548640D01*
X812400Y548640D01*
X812800Y549040D01*
X797560Y654050D02*
X708660Y654050D01*
X719836Y605790D02*
X735330Y590296D01*
X719836Y605790D02*
X708660Y605790D01*
X735330Y590296D02*
X735330Y571500D01*
X885190Y548640D02*
X885190Y542290D01*
X900430Y527050D01*
X937260Y527050D02*
X972820Y491490D01*
X972820Y342900D01*
X937260Y527050D02*
X900430Y527050D01*
D26*
X265430Y547370D03*
D25*
X342900Y520700D02*
X342900Y510540D01*
X331470Y499110D01*
X303530Y499110D02*
X264795Y537845D01*
X303530Y499110D02*
X331470Y499110D01*
X560070Y457200D02*
X560070Y402590D01*
X546100Y388620D01*
X274320Y363220D02*
X254000Y383540D01*
X254000Y406400D01*
X404580Y363220D02*
X417280Y350520D01*
X404580Y363220D02*
X274320Y363220D01*
X471932Y350520D02*
X483870Y362458D01*
X471932Y350520D02*
X417280Y350520D01*
X483870Y362458D02*
X483870Y388874D01*
X254000Y406400D02*
X203200Y457200D01*
X916940Y48260D02*
X942340Y48260D01*
D26*
X662706Y510012D03*
D25*
X677205Y524510D01*
X721360Y524510D02*
X735330Y538480D01*
X735330Y571500D01*
X721360Y524510D02*
X677205Y524510D01*
D26*
X294386Y641350D03*
D25*
X283464Y630428D01*
D27*
X283464Y565404D01*
D25*
X265430Y547370D01*
X264795Y546735D01*
X264795Y537845D01*
X204978Y792734D02*
X223266Y811022D01*
X204978Y792734D02*
X204978Y659130D01*
X197104Y651256D01*
D26*
X197104Y651256D03*
D25*
X223266Y811022D02*
X291846Y811022D01*
X356108Y746760D01*
X421640Y746760D02*
X431292Y756412D01*
X431292Y784860D01*
X421640Y746760D02*
X356108Y746760D01*
X743204Y627380D02*
X771544Y599040D01*
X516636Y552196D02*
X500380Y535940D01*
X516636Y552196D02*
X548197Y552196D01*
X623381Y627380D02*
X743204Y627380D01*
X623381Y627380D02*
X548197Y552196D01*
D26*
X500380Y535940D03*
D25*
X771544Y599040D02*
X812800Y599040D01*
X772160Y699770D02*
X703580Y699770D01*
D26*
X393700Y444500D03*
D25*
X393700Y459740D01*
X500380Y566420D02*
X542290Y566420D01*
X586740Y610870D01*
X586740Y674242D01*
X612268Y699770D01*
X703580Y699770D01*
X500380Y566420D02*
X393700Y459740D01*
X487680Y725170D02*
X544830Y725170D01*
X378460Y784860D02*
X378460Y797560D01*
X302260Y828040D02*
X214630Y828040D01*
X187960Y801370D02*
X187960Y689610D01*
X85598Y622300D02*
X60960Y597662D01*
X60960Y572770D01*
X221996Y562864D02*
X295910Y488950D01*
X295910Y464820D01*
X318770Y441960D01*
X374650Y441960D01*
X408940Y407670D01*
X408940Y398780D02*
X400050Y389890D01*
X372110Y389890D01*
X120650Y622300D02*
X187960Y689610D01*
X120650Y622300D02*
X85598Y622300D01*
X60960Y572770D02*
X70866Y562864D01*
X221996Y562864D01*
X408940Y407670D02*
X408940Y398780D01*
X372110Y389890D02*
X350520Y411480D01*
X335280Y411480D02*
X330200Y406400D01*
X335280Y411480D02*
X350520Y411480D01*
X187960Y801370D02*
X214630Y828040D01*
X378460Y797560D02*
X393700Y812800D01*
X464820Y812800D01*
X487680Y789940D01*
X487680Y725170D01*
X345440Y784860D02*
X302260Y828040D01*
X345440Y784860D02*
X378460Y784860D01*
X91440Y383540D02*
X76200Y383540D01*
X50800Y408940D01*
X50800Y447040D01*
X91440Y383540D02*
X118110Y383540D01*
X163830Y429260D01*
D26*
X163830Y429260D03*
D25*
X885190Y574040D02*
X885190Y622300D01*
X853440Y654050D01*
X822960Y654050D01*
X559054Y537210D02*
X537210Y537210D01*
X495300Y495300D01*
X444500Y457200D02*
X444500Y411480D01*
X427990Y394970D01*
X707390Y568960D02*
X709930Y571500D01*
X707390Y568960D02*
X608330Y568960D01*
X576580Y537210D02*
X559054Y537210D01*
X576580Y537210D02*
X608330Y568960D01*
D26*
X427990Y394970D03*
D25*
X660400Y439420D02*
X660400Y444500D01*
X622300Y401320D02*
X622300Y393700D01*
X622300Y401320D02*
X660400Y439420D01*
X622300Y647700D02*
X622300Y668020D01*
X635000Y680720D01*
X919480Y680720D02*
X967740Y632460D01*
X919480Y680720D02*
X635000Y680720D01*
D26*
X508000Y647700D03*
D25*
X347472Y647700D01*
X273050Y722122D01*
X273050Y728980D01*
X507280Y350520D02*
X579120Y350520D01*
X622300Y393700D01*
X967740Y591820D02*
X967740Y632460D01*
X177800Y495300D02*
X158750Y514350D01*
X73660Y514350D01*
X50800Y491490D01*
D26*
X157480Y546100D03*
X279400Y482600D03*
D25*
X279400Y457200D01*
X157480Y543560D02*
X157480Y546100D01*
X157480Y543560D02*
X218440Y482600D01*
X279400Y482600D01*
X554482Y478282D02*
X571500Y495300D01*
X554482Y478282D02*
X522732Y478282D01*
X494030Y449580D01*
X494030Y434340D01*
D26*
X74422Y543052D03*
D25*
X120650Y496062D02*
X191516Y425196D01*
X120650Y496062D02*
X120650Y497840D01*
X369570Y425450D02*
X389890Y405130D01*
X369570Y425450D02*
X265430Y425450D01*
D26*
X389890Y405130D03*
D25*
X101600Y749300D02*
X63500Y749300D01*
X33020Y718820D01*
X33020Y556768D01*
X46736Y543052D01*
X74422Y543052D01*
D26*
X191516Y425196D03*
X265430Y425450D03*
D25*
X635254Y519176D02*
X635254Y537210D01*
X635254Y519176D02*
X584200Y468122D01*
X584200Y444500D01*
X709060Y537210D02*
X712870Y541020D01*
X709060Y537210D02*
X635254Y537210D01*
X630936Y605536D02*
X683006Y605536D01*
X630936Y605536D02*
X630174Y604774D01*
X683006Y605536D02*
X683260Y605790D01*
D26*
X630174Y604774D03*
X561340Y624840D03*
D25*
X526790Y687330D02*
X340100Y687330D01*
X561340Y652780D02*
X561340Y624840D01*
X561340Y652780D02*
X526790Y687330D01*
X340100Y687330D02*
X298450Y728980D01*
D26*
X712870Y541020D03*
D27*
X341630Y569468D02*
X341630Y624078D01*
D25*
X359918Y551180D02*
X401320Y551180D01*
X359918Y551180D02*
X341630Y569468D01*
X422910Y529590D02*
X422910Y520700D01*
X422910Y529590D02*
X401320Y551180D01*
D26*
X469900Y495300D03*
D25*
X469900Y430530D01*
X511810Y388620D01*
X520700Y388620D01*
X341630Y624078D02*
X247650Y718058D01*
X247650Y728980D01*
X396240Y312420D02*
X386080Y302260D01*
X209550Y302260D01*
X88900Y181610D01*
X88900Y109220D01*
X421640Y297180D02*
X421640Y312420D01*
X421640Y297180D02*
X411988Y287528D01*
X224028Y287528D01*
X114300Y177800D01*
X114300Y109220D01*
X139700Y109220D02*
X139700Y175260D01*
X447040Y289560D02*
X447040Y312420D01*
X447040Y289560D02*
X432562Y275082D01*
X239522Y275082D02*
X139700Y175260D01*
X239522Y275082D02*
X432562Y275082D01*
X497840Y305054D02*
X497840Y312420D01*
X497840Y305054D02*
X453390Y260604D01*
X261874Y260604D01*
X190500Y189230D01*
X190500Y109220D01*
X523240Y307086D02*
X523240Y312420D01*
X523240Y307086D02*
X463804Y247650D01*
X270510Y247650D01*
X215900Y193040D01*
X215900Y109220D01*
X574040Y303530D02*
X574040Y312420D01*
X574040Y303530D02*
X557276Y286766D01*
X464058Y230886D02*
X281686Y230886D01*
X266700Y215900D01*
X266700Y109220D01*
X519938Y286766D02*
X557276Y286766D01*
X519938Y286766D02*
X464058Y230886D01*
X599440Y342392D02*
X624840Y367792D01*
X599440Y342392D02*
X599440Y312420D01*
X807466Y367792D02*
X829310Y345948D01*
X829310Y127000D02*
X730250Y27940D01*
X346710Y27940D01*
X292100Y82550D01*
X292100Y109220D01*
X624840Y367792D02*
X807466Y367792D01*
X829310Y345948D02*
X829310Y127000D01*
X624840Y332740D02*
X646176Y354076D01*
X624840Y332740D02*
X624840Y312420D01*
X646176Y354076D02*
X800862Y354076D01*
X815340Y339598D01*
X815340Y137414D01*
X317500Y109220D02*
X317500Y85090D01*
X719836Y41910D02*
X815340Y137414D01*
X719836Y41910D02*
X360680Y41910D01*
X317500Y85090D01*
X650240Y312420D02*
X650240Y328676D01*
X663194Y341630D01*
X789940Y341630D01*
X800100Y331470D01*
X714756Y57150D02*
X379730Y57150D01*
X342900Y93980D01*
X342900Y109220D01*
X800100Y142494D02*
X800100Y331470D01*
X800100Y142494D02*
X714756Y57150D01*
D26*
X727520Y245872D03*
D25*
X727520Y234760D01*
X707898Y215138D01*
X304038Y215138D02*
X281940Y193040D01*
X281940Y157480D01*
X302260Y137160D02*
X353060Y137160D01*
X368300Y121920D01*
X368300Y109220D01*
X304038Y215138D02*
X707898Y215138D01*
X302260Y137160D02*
X281940Y157480D01*
X742950Y177800D02*
X742950Y265938D01*
X742950Y177800D02*
X723900Y158750D01*
X393700Y134620D02*
X393700Y109220D01*
X417830Y158750D02*
X723900Y158750D01*
X417830Y158750D02*
X393700Y134620D01*
X719836Y289052D02*
X742950Y265938D01*
X719836Y289052D02*
X707390Y289052D01*
X701040Y295402D01*
X701040Y312420D01*
X726440Y303530D02*
X755650Y274320D01*
X726440Y303530D02*
X726440Y312420D01*
X729488Y146558D02*
X431038Y146558D01*
X419100Y134620D01*
X419100Y109220D01*
X755650Y172720D02*
X755650Y274320D01*
X755650Y172720D02*
X729488Y146558D01*
X768350Y284480D02*
X751840Y300990D01*
X751840Y312420D01*
X768350Y162560D02*
X739458Y133668D01*
X768350Y162560D02*
X768350Y284480D01*
X739458Y133668D02*
X452438Y133668D01*
X444500Y125730D01*
X444500Y109220D01*
X729234Y95250D02*
X783590Y149606D01*
X729234Y95250D02*
X483870Y95250D01*
X469900Y109220D01*
X777240Y303276D02*
X777240Y312420D01*
X777240Y303276D02*
X783590Y296926D01*
X783590Y149606D01*
X895350Y404114D02*
X894080Y405384D01*
X894080Y485140D01*
X919480Y485140D02*
X919480Y405384D01*
X920750Y404114D01*
X944880Y405384D02*
X944880Y485140D01*
X944880Y405384D02*
X946150Y404114D01*
X703580Y725170D02*
X570230Y725170D01*
X227330Y534670D02*
X215900Y546100D01*
X203200Y546100D01*
X228600Y457200D02*
X254000Y457200D01*
X139700Y453390D02*
X120650Y472440D01*
X519430Y441960D02*
X534670Y457200D01*
X519430Y441960D02*
X519430Y434340D01*
X397510Y520700D02*
X368300Y520700D01*
X369570Y494030D02*
X359410Y494030D01*
X346710Y481330D01*
X346710Y474980D01*
X896620Y366268D02*
X896620Y342900D01*
X896620Y366268D02*
X889762Y373126D01*
X852932Y373126D01*
X843280Y363474D01*
X843280Y99060D01*
X815340Y71120D01*
X815340Y48260D01*
X866140Y337820D02*
X871220Y342900D01*
X866140Y337820D02*
X866140Y48260D01*
D26*
X629920Y485140D03*
D25*
X669290Y485140D01*
D26*
X742442Y405892D03*
D25*
X742442Y411988D02*
X669290Y485140D01*
X742442Y411988D02*
X742442Y405892D01*
X922020Y214630D02*
X903986Y196596D01*
X922020Y214630D02*
X922020Y342900D01*
D26*
X903986Y196596D03*
M02*
