M48
;GenerationSoftware,Autodesk,EAGLE,9.6.2*%
;CreationDate,2023-04-03T13:26:41Z*%
FMAT,2
ICI,OFF
METRIC,TZ,000.000
T10C0.800
T9C0.813
T8C1.016
T7C1.100
T6C1.150
T5C1.194
T4C1.240
T3C1.270
T2C1.702
T1C3.000
%
G90
M71
T1
X3000Y87000
X101000Y87000
X3000Y3000
X101000Y3000
T2
X5080Y44704
X6223Y67691
X5080Y49149
X6223Y63373
X48768Y72517
T3
X37846Y78486
X40488Y78486
X43129Y78486
T4
X10160Y74930
X12700Y74930
X15240Y74930
X24765Y72898
X27305Y72898
X29845Y72898
T5
X82093Y44617
X82093Y49617
X81280Y59904
X81280Y54904
T6
X41728Y35052
X50728Y35052
T7
X63525Y53721
X55905Y53721
X49530Y49530
X57150Y49530
X58420Y44450
X66040Y44450
X62230Y39370
X69850Y39370
T8
X35814Y59182
X32004Y18542
X34544Y18542
X37084Y18542
X39624Y18542
X42164Y18542
X44704Y18542
X49784Y18542
X9144Y25654
X9144Y28194
X9144Y30734
X9144Y33274
X9144Y35814
X9144Y38354
X9144Y40894
X9144Y43434
X8890Y59182
X11430Y59182
X13970Y59182
X16510Y59182
X19050Y59182
X21590Y59182
X24130Y59182
X26670Y59182
X47244Y18542
X26670Y10922
X24130Y10922
X21590Y10922
X19050Y10922
X16510Y10922
X13970Y10922
X11430Y10922
X8890Y10922
X46990Y10922
X44450Y10922
X41910Y10922
X39370Y10922
X36830Y10922
X34290Y10922
X31750Y10922
X29210Y10922
X32512Y59182
X29972Y59182
X81534Y4826
X84074Y4826
X86614Y4826
X89154Y4826
X91694Y4826
X94234Y4826
X39624Y31242
X42164Y31242
X44704Y31242
X47244Y31242
X49784Y31242
X52324Y31242
X54864Y31242
X57404Y31242
X59944Y31242
X62484Y31242
X65024Y31242
X67564Y31242
X70104Y31242
X72644Y31242
X75184Y31242
X89535Y40411
X92075Y40411
X57658Y18542
X94615Y40411
X87122Y34290
X89662Y34290
X92202Y34290
X94742Y34290
X97282Y34290
X51918Y80137
X97130Y80010
X94488Y48514
X91948Y48514
X89408Y48514
X96774Y59182
X94234Y59182
X52578Y18542
X55118Y18542
X77724Y31242
X60198Y18542
X62738Y18542
X65278Y18542
X67818Y18542
X70358Y18542
X52578Y26162
X55118Y26162
X57658Y26162
X60198Y26162
X62738Y26162
X65278Y26162
X67818Y26162
X70358Y26162
X53594Y59182
X51054Y59182
X48514Y59182
X45974Y59182
X43434Y59182
X40894Y59182
X38354Y59182
T9
X88519Y57404
X27940Y40640
X25400Y40640
X22860Y40640
X22860Y45720
X22733Y50927
X22733Y53467
X13970Y42799
X13970Y45339
X56007Y45720
X53467Y45720
X20320Y54610
X62230Y64770
X34290Y52070
X36830Y52070
X17780Y40640
X20320Y40640
X49403Y43434
X25400Y33020
X32131Y47498
X34671Y47498
X57023Y72517
X54483Y72517
X88519Y54864
X70993Y57150
X73533Y57150
X45847Y38887
X48387Y38887
X52070Y38862
X54610Y38862
X68326Y65405
X70866Y65405
X68326Y60579
X70866Y60579
X79756Y65405
X82296Y65405
X94234Y63246
X96774Y63246
X72669Y49759
X72669Y47219
X12065Y47244
X12065Y49784
X51943Y43434
X20320Y45720
X39751Y52070
X42291Y52070
X64770Y64770
X17780Y54610
X30988Y51816
X30988Y54356
X17780Y49530
X17780Y46990
X25400Y45720
X27940Y45720
X70358Y69977
X70358Y72517
X77216Y69977
X79756Y69977
X41910Y45720
X44450Y45720
X36957Y49403
X39497Y49403
X17780Y33020
X20320Y33020
X22860Y33020
X27940Y33020
X30480Y33020
X33020Y33020
X33020Y40640
X30480Y40640
T10
X66271Y51001
X29439Y64135
X19710Y65126
X50038Y53594
X39370Y44450
X16383Y42926
X42799Y39497
X50800Y64770
X15748Y54610
X27940Y48260
X38989Y40513
X19152Y42520
X26543Y42545
X63017Y60477
X56134Y62484
X71287Y54102
X46990Y49530
X72752Y24587
X62992Y48514
X74244Y40589
X90399Y19660
X26543Y54737
X7442Y54305
M30